# xmcd
#
# Track frame offsets:
# 150
# 30670
# 53205
# 61445
# 89492
# 101897
# 126822
# 146127
# 162410
#
# Disc length: 2557 seconds
#
#
# Revision: 7
# Processed by: cddbd v1.5.1PL2 Copyright (c) Steve Scherf et al.
# Submitted via: FreeRIP 2.945 
#
DISCID=8309fb09
DTITLE=The Waterboys - This Is The Sea
DYEAR=1985
DGENRE=Blues
TTITLE0=Don't Bang the Drum
TTITLE1=The Whole of the Moon
TTITLE2=Spirit
TTITLE3=The Pan Within
TTITLE4=Medicine Bow
TTITLE5=Old England
TTITLE6=Be My Enemy
TTITLE7=Trumpets
TTITLE8=This is the Sea
EXTD=
EXTT0=
EXTT1=
EXTT2=
EXTT3=
EXTT4=
EXTT5=
EXTT6=
EXTT7=
EXTT8=
PLAYORDER=
